# xmcd
#
# Track frame offsets: 
#        150
#        12180
#        27217
#        40500
#        52990
#        69102
#        81530
#        96922
#        106287
#        120350
#        135387
#        147302
#        155585
#        172082
#        193845
#        206777
#        223612
#        245790
#        262470
#        277850
#
# Disc length: 3922 seconds
#
# Revision: 2
# Processed by: cddbd v1.5.2PL0 Copyright (c) Steve Scherf et al.
# Submitted via: ExactAudioCopy v1.0b1
#
DISCID=250f5014
DTITLE=Young, Johnny - Chicago Blues
DYEAR=1990
DGENRE=Blues
TTITLE0=Wild, Wild Woman
TTITLE1=Keep Your Nose Out Of My Business
TTITLE2=I'm Having A Ball
TTITLE3=My Trainfare Out Of Town
TTITLE4=I'm Doing All Right
TTITLE5=Stealin'
TTITLE6=Keep On Drinking
TTITLE7=Hot Dog!
TTITLE8=Come Early In The Morning
TTITLE9=Moaning And Groaning
TTITLE10=Cross-Cut Saw
TTITLE11=Slam Hammer
TTITLE12=Strange Girl
TTITLE13=Ring Around My Heart
TTITLE14=Sometimes I Cry
TTITLE15=Don't You Lie To Me
TTITLE16=On The Road Again
TTITLE17=Walter's Boogie
TTITLE18=Stockyard Blues
TTITLE19=Drinking Straight Whiskey
EXTD=Arhoolie CD 325\n\nJohnny Young:  guitar, mandolin and vocals\nOtis
EXTD=Spann:  piano\nJames Cotton:  harmonica\nBig Walter Horton:  har
EXTD=monica\nJimmy Dawkins:  guitar\nS.P. Leary:  drums\n\nSubmitted 7
EXTD=/18/97\n[Jmccoy@efn.org]
EXTT0=
EXTT1=
EXTT2=
EXTT3=
EXTT4=
EXTT5=
EXTT6=
EXTT7=
EXTT8=
EXTT9=
EXTT10=
EXTT11=
EXTT12=
EXTT13=
EXTT14=
EXTT15=
EXTT16=
EXTT17=
EXTT18=
EXTT19=
PLAYORDER=
